<svg width="16" height="16" viewBox="0 0 16 16" fill="none" xmlns="http://www.w3.org/2000/svg">
<path d="M7.49967 4H5.99967C4.74234 4 4.11434 4 3.72367 4.39067C3.33301 4.78133 3.33301 5.40933 3.33301 6.66667V10.8333H12.6663V6.66667C12.6663 5.40933 12.6663 4.78133 12.2757 4.39067C11.885 4 11.257 4 9.99967 4H8.49967V7.31533L8.95301 6.786C8.99573 6.7361 9.04787 6.6951 9.10643 6.66534C9.165 6.63559 9.22886 6.61766 9.29435 6.61259C9.35985 6.60751 9.4257 6.61539 9.48816 6.63576C9.55061 6.65613 9.60844 6.68861 9.65834 6.73133C9.70824 6.77406 9.74924 6.82619 9.779 6.88476C9.80875 6.94333 9.82668 7.00718 9.83175 7.07268C9.83683 7.13817 9.82896 7.20403 9.80858 7.26648C9.78821 7.32894 9.75573 7.38676 9.71301 7.43667L8.37967 8.992C8.33273 9.04689 8.27446 9.09096 8.20886 9.12118C8.14326 9.15139 8.0719 9.16704 7.99967 9.16704C7.92745 9.16704 7.85609 9.15139 7.79049 9.12118C7.72489 9.09096 7.66661 9.04689 7.61967 8.992L6.28634 7.43667C6.24362 7.38676 6.21114 7.32894 6.19077 7.26648C6.17039 7.20403 6.16252 7.13817 6.16759 7.07268C6.17267 7.00718 6.1906 6.94333 6.22035 6.88476C6.25011 6.82619 6.29111 6.77406 6.34101 6.73133C6.39091 6.68861 6.44874 6.65613 6.51119 6.63576C6.57365 6.61539 6.6395 6.60751 6.705 6.61259C6.77049 6.61766 6.83435 6.63559 6.89292 6.66534C6.95148 6.6951 7.00362 6.7361 7.04634 6.786L7.49967 7.31533V4ZM3.35301 11.8333H12.6463C12.6117 12.36 12.5203 12.698 12.2757 12.9427C11.885 13.3333 11.257 13.3333 9.99967 13.3333H5.99967C4.74234 13.3333 4.11434 13.3333 3.72367 12.9427C3.47901 12.698 3.38701 12.3607 3.35301 11.8333Z" fill="#080808"/>
<path d="M3.92571 2H12.073C13.5064 2 14.6664 3.2 14.6664 4.68C14.6664 5.54 14.275 6.30467 13.6664 6.79533V6.60733C13.6664 6.03 13.6664 5.50067 13.6084 5.07067C13.545 4.59667 13.395 4.09533 12.983 3.684C12.571 3.27133 12.0697 3.12133 11.5964 3.05733C11.1657 3 10.6364 3 10.059 3H5.93971C5.36304 3 4.83371 3 4.40371 3.058C3.92971 3.12133 3.42838 3.27133 3.01704 3.68333C2.60438 4.09533 2.45438 4.59667 2.39038 5.07C2.33304 5.50067 2.33304 6.03 2.33304 6.60733V6.79533C2.01885 6.53991 1.76591 6.21729 1.59285 5.85121C1.4198 5.48514 1.33101 5.08492 1.33304 4.68C1.33304 3.2 2.49371 2 3.92571 2Z" fill="#080808"/>
</svg>
