<svg width="24" height="24" viewBox="0 0 24 24" fill="none" xmlns="http://www.w3.org/2000/svg">
<g clip-path="url(#clip0_190_823)">
<path d="M16.5934 17.3333H21.8334C21.3934 11.5266 18.8934 7.91996 15.6867 5.78663L17.1467 2.59996C17.1908 2.49884 17.2092 2.38835 17.2001 2.2784C17.191 2.16844 17.1548 2.06246 17.0947 1.96995C17.0345 1.87745 16.9524 1.80131 16.8556 1.74837C16.7588 1.69543 16.6504 1.66734 16.54 1.66663H7.40003C7.28971 1.66734 7.18128 1.69543 7.08448 1.74837C6.98768 1.80131 6.90554 1.87745 6.84541 1.96995C6.78528 2.06246 6.74905 2.16844 6.73997 2.2784C6.73088 2.38835 6.74923 2.49884 6.79337 2.59996L7.59337 4.33329H14.34L13.74 5.66663H12.5067C12.8834 6.67946 13.1602 7.72665 13.3334 8.79329C13.4455 9.45494 13.5168 10.1229 13.5467 10.7933L12.4934 11.5333C12.4962 10.671 12.4248 9.81003 12.28 8.95996C12.0958 7.82861 11.778 6.72311 11.3334 5.66663H10.6667C10.0515 6.444 9.49863 7.26879 9.01337 8.13329C8.6221 8.87486 8.28996 9.64614 8.02003 10.44L7.1067 9.83329C7.3733 9.06606 7.70101 8.32145 8.0867 7.60663C8.47641 6.93632 8.90376 6.28862 9.3667 5.66663H8.20003L8.25337 5.77996C4.72003 8.13329 2.03337 12.2666 2.03337 19.1666C2.02436 19.3117 2.04418 19.4571 2.09168 19.5944C2.13919 19.7317 2.21344 19.8583 2.31014 19.9668C2.40684 20.0753 2.52407 20.1635 2.65508 20.2264C2.78608 20.2893 2.92824 20.3256 3.07337 20.3333H8.4067C8.17769 20.0949 8.01957 19.7975 7.95005 19.4744C7.88053 19.1513 7.90236 18.8151 8.01309 18.5037C8.12383 18.1923 8.31909 17.9178 8.577 17.7111C8.83492 17.5044 9.14529 17.3736 9.47337 17.3333C9.31371 17.0625 9.2286 16.7543 9.2267 16.44C9.2267 15.9626 9.41634 15.5047 9.75391 15.1672C10.0915 14.8296 10.5493 14.64 11.0267 14.64H15.0267C15.5041 14.64 15.9619 14.8296 16.2995 15.1672C16.6371 15.5047 16.8267 15.9626 16.8267 16.44C16.8301 16.7532 16.7496 17.0617 16.5934 17.3333Z" fill="black"/>
<path d="M14.3997 19C14.3997 18.8232 14.3295 18.6537 14.2045 18.5286C14.0795 18.4036 13.9099 18.3334 13.7331 18.3334H9.73307C9.55626 18.3334 9.38669 18.4036 9.26167 18.5286C9.13664 18.6537 9.06641 18.8232 9.06641 19C9.06641 19.1769 9.13664 19.3464 9.26167 19.4714C9.38669 19.5965 9.55626 19.6667 9.73307 19.6667H13.7331C13.9099 19.6667 14.0795 19.5965 14.2045 19.4714C14.3295 19.3464 14.3997 19.1769 14.3997 19Z" fill="black"/>
<path d="M15.027 15.6666H11.027C10.8502 15.6666 10.6806 15.7369 10.5556 15.8619C10.4306 15.9869 10.3604 16.1565 10.3604 16.3333C10.3604 16.5101 10.4306 16.6797 10.5556 16.8047C10.6806 16.9297 10.8502 17 11.027 17H15.027C15.2038 17 15.3734 16.9297 15.4984 16.8047C15.6234 16.6797 15.6937 16.5101 15.6937 16.3333C15.6937 16.1565 15.6234 15.9869 15.4984 15.8619C15.3734 15.7369 15.2038 15.6666 15.027 15.6666Z" fill="black"/>
<path d="M14.6667 21H10.6667C10.4899 21 10.3203 21.0702 10.1953 21.1953C10.0702 21.3203 10 21.4899 10 21.6667C10 21.8435 10.0702 22.013 10.1953 22.1381C10.3203 22.2631 10.4899 22.3333 10.6667 22.3333H14.6667C14.8435 22.3333 15.013 22.2631 15.1381 22.1381C15.2631 22.013 15.3333 21.8435 15.3333 21.6667C15.3333 21.4899 15.2631 21.3203 15.1381 21.1953C15.013 21.0702 14.8435 21 14.6667 21Z" fill="black"/>
<path d="M21.8001 21H17.1335C16.9567 21 16.7871 21.0702 16.6621 21.1953C16.537 21.3203 16.4668 21.4899 16.4668 21.6667C16.4668 21.8435 16.537 22.013 16.6621 22.1381C16.7871 22.2631 16.9567 22.3333 17.1335 22.3333H21.8001C21.9769 22.3333 22.1465 22.2631 22.2715 22.1381C22.3966 22.013 22.4668 21.8435 22.4668 21.6667C22.4668 21.4899 22.3966 21.3203 22.2715 21.1953C22.1465 21.0702 21.9769 21 21.8001 21Z" fill="black"/>
<path d="M22.4671 18.3334H17.8005C17.6236 18.3334 17.4541 18.4036 17.3291 18.5286C17.204 18.6537 17.1338 18.8232 17.1338 19C17.1338 19.1769 17.204 19.3464 17.3291 19.4714C17.4541 19.5965 17.6236 19.6667 17.8005 19.6667H22.4671C22.6439 19.6667 22.8135 19.5965 22.9385 19.4714C23.0636 19.3464 23.1338 19.1769 23.1338 19C23.1338 18.8232 23.0636 18.6537 22.9385 18.5286C22.8135 18.4036 22.6439 18.3334 22.4671 18.3334Z" fill="black"/>
</g>
<defs>
<clipPath id="clip0_190_823">
<rect width="24" height="24" fill="white"/>
</clipPath>
</defs>
</svg>
