<svg width="16" height="16" viewBox="0 0 16 16" fill="none" xmlns="http://www.w3.org/2000/svg">
<path d="M14.2873 12.8777L11.9892 9.15479L10.6533 10.4759L11.9988 12.8777H14.2873Z" fill="#080808"/>
<path d="M11.2547 4.40081L12.2666 4.77317L9.42079 7.61898C9.31419 7.04106 9.09425 6.50221 8.7865 6.0259C7.99451 4.7993 6.61551 3.98559 5.04974 3.98559C2.59802 3.98588 0.603516 5.98038 0.603516 8.43211C0.603516 10.8838 2.59802 12.8777 5.04974 12.8777C5.66642 12.8777 6.25284 12.7515 6.78759 12.5236C7.09857 12.3915 7.39164 12.2238 7.66209 12.0267L9.45867 10.3027L13.5933 6.16744L13.9257 7.08247L15.1723 3.26525L15.2196 3.12195L11.255 4.40081H11.2547ZM7.16963 6.90628C7.48003 7.3356 7.66239 7.86242 7.66239 8.43211C7.66239 8.44649 7.66239 8.46147 7.6618 8.47586V9.47194L6.95673 10.2149L6.92531 10.2475V10.2481C6.75118 10.4287 6.55032 10.5837 6.33037 10.7082L6.28838 10.7311C6.10631 10.8301 5.91132 10.9079 5.70665 10.9608C5.49639 11.0157 5.27674 11.0445 5.04945 11.0445C3.60819 11.0445 2.43592 9.87219 2.43592 8.43152C2.43592 6.99085 3.60819 5.81799 5.04945 5.81799C5.34281 5.81799 5.62472 5.86644 5.88871 5.95601V5.9566C6.40848 6.13279 6.85484 6.46902 7.16963 6.90569V6.90628Z" fill="#080808"/>
<path d="M7.66209 8.47621C7.66267 8.46182 7.66267 8.44684 7.66267 8.43245C7.66267 7.86306 7.48002 7.33624 7.16992 6.90662L8.78649 6.02625C9.09424 6.50285 9.31419 7.04141 9.42079 7.61932L7.66209 9.47228V8.47621Z" fill="#080808"/>
<path d="M9.45505 12.878H8.00293L9.45858 11.4811L9.45505 12.878Z" fill="#080808"/>
<path d="M15.1721 3.26525L11.87 4.40493L12.6699 4.68125L7.34651 10.2231C7.34651 10.2231 5.97926 11.8667 4.13217 11.2121C2.28508 10.5576 2.18318 8.73927 2.18318 8.73927C2.18318 8.73927 2.02343 6.87045 3.43415 6.2156C4.88803 5.54078 5.8891 5.95689 5.8891 5.95689C5.6254 5.86733 5.3432 5.81887 5.04984 5.81887C3.60858 5.81887 2.43631 6.99114 2.43631 8.4324C2.43631 9.87366 3.60858 11.0453 5.04984 11.0453C5.27683 11.0453 5.49678 11.0166 5.70704 10.9616C5.91201 10.9085 6.107 10.8307 6.28877 10.732L6.33076 10.7091C6.55071 10.5846 6.75157 10.4295 6.9257 10.2489V10.2484L6.95713 10.2158L7.66219 9.47282L9.42089 7.61986L12.2667 4.77405L11.2548 4.4017L15.2191 3.12195L15.1718 3.26525H15.1721Z" fill="#080808"/>
</svg>
