<svg version="1.2" xmlns="http://www.w3.org/2000/svg" viewBox="0 0 27 7" width="27" height="7"><defs><clipPath clipPathUnits="userSpaceOnUse" id="cp1"><path d="m-324-764h375v812h-375z"/></clipPath><clipPath clipPathUnits="userSpaceOnUse" id="cp2"><path d="m0.13 0h26.16v6.23h-26.16z"/></clipPath></defs><style>.a{fill:#ffc107}</style><g clip-path="url(#cp1)"><g clip-path="url(#cp2)"><path class="a" d="m0.1 2.8c0.1-0.4 0.2-0.7 0.3-1 0.6-1.3 2.1-2 3.5-1.7 1.5 0.3 2.5 1.6 2.5 3 0 1.5-1.1 2.8-2.5 3.1-1.7 0.3-3.4-0.8-3.7-2.5q0-0.1-0.1-0.2z"/><path class="a" d="m13.2 6.2c-1.7 0-3.1-1.4-3.1-3.1 0-1.7 1.4-3.1 3.1-3.1 1.7 0 3.1 1.4 3.1 3.1 0 1.7-1.4 3.1-3.1 3.1z"/><path class="a" d="m26.3 3.1c0 1.7-1.4 3.1-3.1 3.1-1.8 0-3.2-1.4-3.1-3.1 0-1.7 1.4-3.1 3.1-3.1 1.7 0 3.1 1.4 3.1 3.1z"/></g></g></svg>