<svg width="24" height="20" viewBox="0 0 24 20" fill="none" xmlns="http://www.w3.org/2000/svg">
<g clip-path="url(#clip0_190_835)">
<path d="M14.4005 1.2H19.2005C19.8642 1.2 20.4005 1.73625 20.4005 2.4C20.4005 3.06375 19.8642 3.6 19.2005 3.6H14.9405C14.7455 4.5675 14.0817 5.36625 13.2005 5.74875V16.8H19.2005C19.8642 16.8 20.4005 17.3363 20.4005 18C20.4005 18.6638 19.8642 19.2 19.2005 19.2H4.80046C4.13671 19.2 3.60046 18.6638 3.60046 18C3.60046 17.3363 4.13671 16.8 4.80046 16.8H10.8005V5.74875C9.91921 5.3625 9.25546 4.56375 9.06046 3.6H4.80046C4.13671 3.6 3.60046 3.06375 3.60046 2.4C3.60046 1.73625 4.13671 1.2 4.80046 1.2H9.60046C10.148 0.4725 11.018 0 12.0005 0C12.983 0 13.853 0.4725 14.4005 1.2ZM16.4855 12H21.9155L19.2005 7.3425L16.4855 12ZM19.2005 15.6C16.8417 15.6 14.8805 14.325 14.4755 12.6413C14.378 12.2288 14.513 11.805 14.7267 11.4375L18.2967 5.3175C18.4842 4.995 18.8292 4.8 19.2005 4.8C19.5717 4.8 19.9167 4.99875 20.1042 5.3175L23.6742 11.4375C23.888 11.805 24.023 12.2288 23.9255 12.6413C23.5205 14.325 21.5592 15.6 19.2005 15.6ZM4.75546 7.3425L2.04046 12H7.47421L4.75546 7.3425ZM0.0342076 12.6413C-0.0632924 12.2288 0.0717076 11.805 0.285458 11.4375L3.85546 5.3175C4.04296 4.995 4.38796 4.8 4.75921 4.8C5.13046 4.8 5.47546 4.99875 5.66296 5.3175L9.23296 11.4375C9.44671 11.805 9.58171 12.2288 9.48421 12.6413C9.07546 14.325 7.11421 15.6 4.75546 15.6C2.39671 15.6 0.439208 14.325 0.0342076 12.6413Z" fill="black"/>
</g>
<defs>
<clipPath id="clip0_190_835">
<rect width="24" height="19.2" fill="white"/>
</clipPath>
</defs>
</svg>
