<svg width="16" height="16" viewBox="0 0 16 16" fill="none" xmlns="http://www.w3.org/2000/svg">
<path d="M5.56804 13.4947C5.85814 13.8615 6.22781 14.1577 6.64912 14.3607C7.07043 14.5637 7.53236 14.6684 8.00004 14.6667C8.46772 14.6684 8.92966 14.5637 9.35097 14.3607C9.77228 14.1577 10.1419 13.8615 10.432 13.4947C8.81809 13.7135 7.18199 13.7135 5.56804 13.4947ZM12.5 6.00004V6.46937C12.5 7.03271 12.66 7.58337 12.9614 8.05204L13.7 9.20071C14.374 10.25 13.8594 11.676 12.6867 12.0074C9.62255 12.8754 6.37754 12.8754 3.31337 12.0074C2.14071 11.676 1.62604 10.25 2.30004 9.20071L3.03871 8.05204C3.34109 7.57961 3.50145 7.03029 3.50071 6.46937V6.00004C3.50071 3.42271 5.51537 1.33337 8.00004 1.33337C10.4847 1.33337 12.5 3.42271 12.5 6.00004Z" fill="#080808"/>
</svg>
