<svg width="24" height="24" viewBox="0 0 24 24" fill="none" xmlns="http://www.w3.org/2000/svg">
<path d="M3 4.125C3 2.676 4.176 1.5 5.625 1.5H12.375C13.824 1.5 15 2.676 15 4.125V4.9395L19.4625 9.402C19.95 9.88955 20.3367 10.4683 20.6005 11.1053C20.8643 11.7423 21 12.425 21 13.1145V21.75C21 21.9489 20.921 22.1397 20.7803 22.2803C20.6397 22.421 20.4489 22.5 20.25 22.5C20.0511 22.5 19.8603 22.421 19.7197 22.2803C19.579 22.1397 19.5 21.9489 19.5 21.75V13.1145C19.5001 12.622 19.4032 12.1343 19.2148 11.6793C19.0264 11.2243 18.7502 10.8108 18.402 10.4625L15 7.0605V10.938L16.281 12.219C16.4218 12.3596 16.501 12.5504 16.5012 12.7495C16.5013 12.9485 16.4224 13.1394 16.2817 13.2803C16.1411 13.4211 15.9503 13.5003 15.7513 13.5004C15.5523 13.5006 15.3613 13.4216 15.2205 13.281L12.177 10.236L11.583 9.717C11.3483 9.59678 11.0785 9.56427 10.822 9.62532C10.5655 9.68637 10.3392 9.83697 10.1838 10.05C10.0285 10.263 9.95427 10.5245 9.97456 10.7874C9.99485 11.0503 10.1083 11.2973 10.2945 11.484L12.531 13.719C12.6009 13.7887 12.6563 13.8714 12.6942 13.9625C12.732 14.0536 12.7515 14.1513 12.7515 14.25V15.75C12.7515 16.1478 12.9095 16.5294 13.1908 16.8107C13.4721 17.092 13.8537 17.25 14.2515 17.25C14.4502 17.2504 14.6405 17.3296 14.7809 17.4702C14.9212 17.6108 15 17.8013 15 18V19.875C15 20.5712 14.7234 21.2389 14.2312 21.7312C13.7389 22.2234 13.0712 22.5 12.375 22.5H5.625C4.92881 22.5 4.26113 22.2234 3.76884 21.7312C3.27656 21.2389 3 20.5712 3 19.875V4.125ZM13.5 19.125V18.6555C13.0639 18.5428 12.6588 18.3331 12.315 18.042C11.8035 18.1428 11.3429 18.4181 11.0119 18.8208C10.6808 19.2235 10.4999 19.7287 10.5 20.25V21H11.625C11.754 21 11.88 20.9865 12 20.9625V20.25C12 20.0511 12.079 19.8603 12.2197 19.7197C12.3603 19.579 12.5511 19.5 12.75 19.5H13.4625C13.4865 19.38 13.5 19.254 13.5 19.125ZM10.9605 14.271L9.2355 12.5445C8.76973 12.0799 8.49682 11.4564 8.4715 10.799C8.44619 10.1417 8.67034 9.49903 9.099 9H9C8.51596 9.00004 8.03911 9.11721 7.61017 9.34149C7.18123 9.56578 6.81293 9.89052 6.5367 10.288C6.26048 10.6855 6.08453 11.1439 6.02389 11.6242C5.96325 12.1044 6.01971 12.5921 6.18845 13.0458C6.35719 13.4995 6.6332 13.9056 6.99292 14.2295C7.35265 14.5534 7.78539 14.7854 8.25423 14.9058C8.72307 15.0261 9.21407 15.0313 9.68532 14.9207C10.1566 14.8102 10.5941 14.5873 10.9605 14.271ZM7.5 3.75V3H6.375C6.246 3 6.12 3.0135 6 3.0375V3.75C6 3.94891 5.92098 4.13968 5.78033 4.28033C5.63968 4.42098 5.44891 4.5 5.25 4.5H4.5375C4.5135 4.62 4.5 4.746 4.5 4.875V6H5.25C5.84674 6 6.41903 5.76295 6.84099 5.34099C7.26295 4.91903 7.5 4.34674 7.5 3.75ZM5.25 18H4.5V19.125C4.5 19.254 4.5135 19.38 4.5375 19.5H5.25C5.44891 19.5 5.63968 19.579 5.78033 19.7197C5.92098 19.8603 6 20.0511 6 20.25V20.9625C6.12 20.9865 6.246 21 6.375 21H7.5V20.25C7.5 19.6533 7.26295 19.081 6.84099 18.659C6.41903 18.2371 5.84674 18 5.25 18ZM12 3.75V3.0375C11.8766 3.0125 11.7509 2.99993 11.625 3H10.5V3.75C10.5 4.34674 10.7371 4.91903 11.159 5.34099C11.581 5.76295 12.1533 6 12.75 6H13.5V4.875C13.5 4.746 13.4865 4.62 13.4625 4.5H12.75C12.5511 4.5 12.3603 4.42098 12.2197 4.28033C12.079 4.13968 12 3.94891 12 3.75Z" fill="black"/>
</svg>
