<svg width="16" height="16" viewBox="0 0 16 16" fill="none" xmlns="http://www.w3.org/2000/svg">
<path d="M2.66625 9.16672C2.56548 9.16667 2.46704 9.19708 2.38385 9.25395C2.30066 9.31082 2.23659 9.3915 2.20005 9.48541C2.1635 9.57933 2.15619 9.68209 2.17907 9.78023C2.20195 9.87837 2.25395 9.96731 2.32825 10.0354L6.32825 13.7021C6.39979 13.7677 6.48888 13.8111 6.58465 13.8269C6.68043 13.8427 6.77874 13.8304 6.8676 13.7913C6.95645 13.7522 7.03201 13.6881 7.08504 13.6068C7.13808 13.5255 7.16629 13.4305 7.16625 13.3334V2.66672C7.16625 2.53411 7.11357 2.40693 7.0198 2.31317C6.92604 2.2194 6.79886 2.16672 6.66625 2.16672C6.53364 2.16672 6.40647 2.2194 6.3127 2.31317C6.21893 2.40693 6.16625 2.53411 6.16625 2.66672V9.16672H2.66625ZM13.3329 6.83339H9.83292V13.3334C9.83292 13.466 9.78024 13.5932 9.68647 13.6869C9.5927 13.7807 9.46553 13.8334 9.33292 13.8334C9.20031 13.8334 9.07313 13.7807 8.97937 13.6869C8.8856 13.5932 8.83292 13.466 8.83292 13.3334V2.66672C8.83288 2.56964 8.86109 2.47466 8.91413 2.39335C8.96716 2.31204 9.04272 2.24793 9.13157 2.20884C9.22043 2.16974 9.31874 2.15736 9.41452 2.17321C9.51029 2.18905 9.59938 2.23243 9.67092 2.29805L13.6709 5.96472C13.7452 6.03279 13.7972 6.12173 13.8201 6.21988C13.843 6.31802 13.8357 6.42078 13.7991 6.5147C13.7626 6.60861 13.6985 6.68929 13.6153 6.74616C13.5321 6.80303 13.4337 6.83343 13.3329 6.83339Z" fill="#080808"/>
</svg>
